<svg width="142" height="48" viewBox="0 0 142 48" fill="none" xmlns="http://www.w3.org/2000/svg">
<g filter="url(#filter0_d)">
<path d="M65.5484 37.0833C65.447 37.2352 65.3203 37.3619 65.219 37.5139C64.3827 38.6285 63.3437 39.4138 61.9499 39.6418C59.5171 40.0724 57.6418 38.8565 57.1096 36.526C56.2227 32.7008 58.2754 27.7104 63.3944 26.6718C65.3457 26.2665 67.2716 26.4692 69.1723 27.0518C69.3496 27.1025 69.8058 27.3304 69.8818 27.3811C69.7804 28.0904 69.6791 28.825 69.5777 29.5343C69.3243 31.3076 69.0455 33.0808 68.7921 34.8794C68.7414 35.31 68.7414 35.766 68.8175 36.1966C68.9442 36.8806 69.4257 37.1846 70.1099 37.0326C70.6167 36.9313 71.0729 36.6779 71.4277 36.3233C71.9091 35.8673 72.2386 35.3354 72.4667 34.7527C73.0242 33.3848 73.1762 31.9409 73.1002 30.4969C73.0495 29.3823 72.8214 28.3184 72.34 27.3051C71.3263 25.1266 69.6031 23.7333 67.297 23.1507C63.9519 22.2894 60.8349 22.8213 58.0726 24.9492C55.9186 26.6211 54.7275 28.8757 54.246 31.5102C53.8913 33.4861 53.9166 35.4367 54.5248 37.3619C54.7022 37.9445 54.981 38.5018 55.2344 39.0845C55.2851 39.2111 55.3611 39.3378 55.4371 39.4898C55.2597 39.4898 55.133 39.4898 55.0316 39.4898C54.1954 39.4898 53.3844 39.4898 52.5482 39.4898C52.2187 39.4898 52.0667 39.3631 51.94 39.0845C51.4585 37.9192 51.1544 36.6779 51.0783 35.4367C50.8503 32.1182 51.5598 29.0277 53.4351 26.2665C55.5385 23.176 58.4274 21.3014 62.1019 20.5921C64.6108 20.1108 67.0689 20.2122 69.451 21.1748C73.2016 22.6947 75.4063 25.4812 75.9638 29.509C76.2679 31.6875 75.9891 33.8154 75.0262 35.7913C74.2152 37.4886 72.9481 38.7298 71.1489 39.3378C70.1352 39.6924 69.0709 39.7938 68.0065 39.5911C66.8915 39.3631 66.1819 38.6792 65.8272 37.6152C65.7765 37.4126 65.7258 37.2353 65.6498 37.0326C65.6244 37.0833 65.5737 37.0833 65.5484 37.0833ZM65.6244 29.7876C65.447 29.737 65.295 29.6863 65.1683 29.6863C64.0532 29.5597 63.1409 29.9396 62.3807 30.7503C61.6458 31.5356 61.2657 32.4728 61.1136 33.5368C61.0123 34.1701 61.0123 34.8034 61.215 35.4113C61.4937 36.2473 62.2793 36.6273 63.1156 36.3486C63.5464 36.1966 63.8759 35.918 64.18 35.5633C64.6361 35.006 64.9149 34.3727 65.0669 33.6888C65.1683 33.1568 65.2443 32.6248 65.3203 32.0929C65.4217 31.3076 65.5231 30.5729 65.6244 29.7876Z" fill="white"/>
<path d="M124.797 36.9819C124.873 36.7793 124.974 36.602 125.05 36.3993C126.216 33.6381 127.382 30.8516 128.548 28.0904C128.928 27.1785 129.612 26.7478 130.575 26.6972C130.879 26.6718 131.183 26.6718 131.487 26.7225C132.298 26.8491 132.881 27.3051 133.185 28.0904C133.819 29.6103 134.452 31.1302 135.111 32.6755C135.998 34.8034 136.885 36.9313 137.772 39.0592C137.848 39.2365 137.924 39.4138 138 39.6418C136.733 39.6418 135.517 39.6418 134.3 39.6418C133.16 36.7793 132.045 33.9421 130.93 31.0796C130.879 31.0796 130.854 31.0796 130.828 31.0796C130.752 31.2316 130.676 31.3582 130.626 31.5102C129.739 33.7648 128.852 36.0193 127.965 38.2485C127.813 38.6285 127.407 39.6418 127.407 39.6418C127.382 39.6418 127.255 39.6418 127.154 39.6418C125.481 39.6418 123.834 39.6418 122.161 39.6418C122.136 39.6418 122.136 39.6418 122.085 39.6418C122.035 39.5405 121.959 39.3631 121.883 39.2111C121.604 38.5272 121.3 37.8686 121.072 37.1846C120.945 36.8553 120.768 36.754 120.438 36.7793C119.197 36.8046 117.955 36.7793 116.713 36.7793C116.232 36.7793 116.232 36.7793 116.054 37.2099C115.801 37.8432 115.547 38.4765 115.294 39.1098C115.218 39.2871 115.142 39.4645 115.066 39.6418C113.849 39.6418 112.684 39.6418 111.417 39.6418C111.493 39.4391 111.543 39.2871 111.594 39.1352C112.886 36.0447 114.179 32.9795 115.446 29.889C115.674 29.357 115.877 28.825 116.105 28.2931C116.561 27.2038 117.347 26.6465 118.538 26.6718C119.805 26.6971 120.54 27.1531 121.046 28.3437C122.187 31.0543 123.302 33.7394 124.442 36.45C124.518 36.6273 124.594 36.8046 124.67 36.9819C124.721 36.9819 124.746 36.9819 124.797 36.9819ZM119.779 33.8154C119.399 32.8022 119.044 31.8649 118.563 30.9276C118.081 31.8649 117.701 32.8022 117.347 33.8154C118.208 33.8154 118.943 33.8154 119.779 33.8154Z" fill="white"/>
<path d="M33.2125 12.8658C33.1618 13.0178 33.1365 13.1192 33.1112 13.1952C32.8324 14.0818 32.9844 14.9177 33.542 15.627C34.4796 16.8683 35.7467 17.6283 37.2925 17.8309C38.7877 18.0336 40.1561 17.6536 41.4485 16.919C41.9807 16.615 42.4622 16.2097 42.969 15.855C43.0957 15.7537 43.2225 15.6524 43.3492 15.551C44.0841 17.4256 44.0334 22.948 43.2731 24.5946C43.1718 24.4679 43.0957 24.3666 43.0197 24.2399C41.6766 22.416 40.0041 20.9721 38.0274 19.8575C36.5323 19.0215 34.9104 18.5656 33.1872 18.6669C33.0351 18.6669 32.8831 18.6669 32.7564 18.6922C32.3002 18.8442 31.9454 18.6922 31.5653 18.4136C30.3743 17.5776 29.2592 16.6657 28.2709 15.6017C27.5867 14.8417 27.0038 14.0058 26.5984 13.0685C25.8888 11.4726 25.7621 9.85135 26.421 8.2301C27.5613 5.34225 29.5127 3.13837 32.4016 1.92244C35.5946 0.579842 38.5343 1.23847 41.0684 3.59435C41.8287 4.30364 42.4369 5.1396 42.8677 6.10221C43.6786 7.95145 43.6026 9.75002 42.6143 11.5233C41.8793 12.8152 40.8403 13.8031 39.5479 14.5124C38.9397 14.8671 38.2808 15.0697 37.5459 15.0444C37.1658 15.0191 36.8364 14.9177 36.5576 14.6391C36.3295 14.4111 36.2789 14.2084 36.4816 13.9551C36.7603 13.6258 37.0898 13.2965 37.4446 13.0432C38.9144 11.9286 40.3842 10.8646 41.854 9.77535C42.3608 9.39537 42.4115 9.34471 42.1328 8.78741C41.1191 6.71018 39.6746 5.03827 37.4953 4.12631C34.1755 2.73306 30.653 4.30364 28.9805 6.83684C27.2826 9.44603 28.9298 11.9286 31.2359 12.6379C31.692 12.7645 32.1735 12.7899 32.655 12.8405C32.8071 12.8912 32.9844 12.8658 33.2125 12.8658Z" fill="white"/>
<path d="M14.6625 27.0772C14.6878 26.9758 14.6878 26.9252 14.7132 26.8492C15.0933 25.8359 14.8905 24.924 14.2063 24.1133C12.8379 22.4921 11.0893 21.8081 8.98596 22.0868C7.41478 22.2894 6.09702 23.0241 4.90596 24.0373C4.77925 24.1387 4.67789 24.24 4.55118 24.3413C3.81627 23.1001 3.81627 17.7043 4.55118 15.2725C4.65255 15.4245 4.75391 15.5258 4.85528 15.6524C6.19838 17.451 7.84559 18.8949 9.79689 20.0095C11.5708 20.9975 13.4968 21.4535 15.5241 21.1495C15.6508 21.1242 15.8028 21.1748 15.9296 21.2508C17.4754 22.2641 18.8945 23.404 20.0349 24.848C20.5417 25.4813 20.9472 26.1399 21.2766 26.8745C21.9609 28.4451 22.0622 30.041 21.454 31.6116C20.3137 34.5248 18.337 36.754 15.4481 37.9699C11.0893 39.8192 6.70522 37.5393 4.95665 33.7395C4.52584 32.8529 4.37379 31.8903 4.44981 30.9023C4.5005 30.1677 4.67789 29.4837 5.00733 28.8504C5.79292 27.2798 6.98397 26.0892 8.52981 25.2786C9.16335 24.9493 9.82223 24.772 10.5571 24.8986C10.6585 24.9239 10.7852 24.9493 10.8866 25C11.5961 25.2786 11.6722 25.6839 11.1653 26.2159C10.9119 26.4692 10.6332 26.7225 10.3291 26.9252C8.85925 28.0145 7.38944 29.1037 5.91963 30.193C5.5395 30.4717 5.48882 30.5477 5.66621 30.953C6.85726 33.5115 8.63118 35.4114 11.4694 36.1207C12.5845 36.3993 13.6995 36.3487 14.8145 36.0194C16.2337 35.6141 17.4247 34.8034 18.413 33.6888C18.7932 33.2582 19.0973 32.7769 19.3 32.2196C19.8068 30.8263 19.5787 29.585 18.5904 28.4958C17.6781 27.5078 16.5378 27.0265 15.1946 27.0518C15.0426 27.0772 14.8652 27.0772 14.6625 27.0772Z" fill="white"/>
<path d="M28.2709 39.5151C25.2806 40.1738 22.3663 40.1738 19.3507 39.4391C19.5534 39.2871 19.6801 39.1858 19.8068 39.0845C21.8088 37.5139 23.4307 35.614 24.4697 33.2581C25.1539 31.7382 25.382 30.117 25.1539 28.445C25.1286 28.2931 25.1792 28.1157 25.2553 28.0144C26.3196 26.3678 27.536 24.8479 29.1325 23.6573C30.1969 22.8467 31.3879 22.2894 32.731 22.1374C33.7447 22.0107 34.733 22.1374 35.6707 22.5427C38.6103 23.8093 40.8657 25.8359 41.9807 28.901C43.5772 33.3088 41.1191 37.4632 37.5206 39.0592C35.772 39.8444 34.0235 39.6924 32.3509 38.7298C31.0585 37.9952 30.0702 36.9566 29.3859 35.6393C29.1579 35.2087 29.0058 34.702 28.8791 34.1954C28.7777 33.7394 28.8538 33.2835 29.1072 32.8528C29.3606 32.4222 29.6394 32.3715 29.9941 32.7008C30.2982 32.9795 30.577 33.2835 30.8304 33.6128C31.9454 35.082 33.0098 36.5766 34.1248 38.0712C34.4289 38.4765 34.5049 38.5272 34.9104 38.3245C37.3432 37.1846 39.2438 35.4873 39.9787 32.8275C40.7136 30.1676 39.928 27.8371 38.0528 25.8612C37.3685 25.1519 36.5576 24.6199 35.5946 24.3919C34.6063 24.1639 33.694 24.3666 32.8831 24.9492C31.692 25.8105 31.0585 27.0011 31.0078 28.4704C31.0078 28.6984 31.0078 28.9517 31.0078 29.205C30.8558 29.1797 30.7544 29.1797 30.653 29.129C29.7914 28.8504 29.0058 29.0277 28.2963 29.5343C27.0292 30.4716 26.2689 31.7382 26.0409 33.3341C25.7874 35.0567 26.3196 36.6019 27.2319 38.0459C27.5107 38.5525 27.8908 38.9832 28.2709 39.5151Z" fill="white"/>
<path d="M16.9179 10.738C17.1966 10.7887 17.4247 10.8647 17.6528 10.89C18.4384 10.9913 19.1733 10.7887 19.7815 10.282C21.2259 9.06609 21.9862 7.49551 21.9102 5.59561C21.8595 3.82237 21.0739 2.30244 19.9842 0.959849C19.8575 0.807857 19.7561 0.681199 19.5787 0.478543C22.5944 -0.180089 25.5087 -0.154754 28.5497 0.52921C28.3469 0.681202 28.2202 0.782528 28.1189 0.883856C26.1169 2.45444 24.5204 4.329 23.456 6.65955C22.7718 8.17947 22.493 9.80072 22.7211 11.4473C22.7464 11.7006 22.7211 11.8779 22.5691 12.0806C21.7581 13.2965 20.8458 14.4618 19.7815 15.4751C19.0212 16.1844 18.185 16.7923 17.2473 17.2483C15.5748 18.0336 13.8515 18.1603 12.179 17.451C9.36609 16.2604 7.18671 14.3098 6.021 11.4473C4.27243 7.14086 6.47715 2.75842 10.2784 1.01052C12.2297 0.123897 14.1556 0.351886 15.9296 1.54249C16.9432 2.22645 17.7542 3.11307 18.3877 4.17701C18.7171 4.73432 18.9452 5.31696 19.0212 5.97559C19.0719 6.43156 18.9959 6.86221 18.7425 7.24219C18.4891 7.59683 18.261 7.6475 17.9569 7.36885C17.6274 7.09019 17.3487 6.76088 17.0953 6.43156C15.9802 4.9623 14.9159 3.46772 13.8009 1.97313C13.4968 1.56782 13.3954 1.51715 12.9646 1.71981C10.5065 2.88508 8.63118 4.60766 7.89627 7.34351C7.06 10.434 8.65652 13.6005 10.9373 15.0444C13.5981 16.767 16.0816 14.9684 16.7405 12.7392C16.8672 12.3086 16.8925 11.8273 16.9432 11.3713C16.9432 11.118 16.9179 10.9407 16.9179 10.738Z" fill="white"/>
<path d="M105.107 35.5634C105.107 36.9313 105.107 38.2486 105.107 39.6418C103.941 39.6418 102.775 39.6418 101.609 39.6418C101.609 39.4392 101.609 32.4475 101.609 29.0784C101.609 27.7611 102.395 26.8238 103.84 26.7985C105.867 26.7985 107.843 26.7985 109.845 26.7985C110.758 26.7985 111.619 27.0771 112.278 27.7611C112.684 28.1918 112.937 28.6984 113.064 29.281C113.343 30.5983 113.368 31.9156 113.039 33.2075C112.658 34.6514 111.594 35.538 110.099 35.5887C108.578 35.5634 106.196 35.5634 105.107 35.5634ZM105.132 32.4729C105.36 32.4729 108.756 32.4729 108.857 32.4729C109.313 32.4729 109.617 32.1435 109.617 31.8142C109.643 31.4089 109.617 30.8516 109.617 30.497C109.617 30.1423 109.339 29.8383 108.857 29.8383C108.756 29.8383 105.335 29.8383 105.132 29.8383C105.132 30.725 105.132 31.5356 105.132 32.4729Z" fill="white"/>
<path d="M90.4845 36.6526C90.4845 37.6912 90.4845 38.6539 90.4845 39.6418C89.4455 39.6418 85.0868 39.6418 82.4259 39.6418C81.9191 39.6418 81.3869 39.5658 80.8801 39.4138C79.0808 38.8818 78.0925 37.6152 77.687 35.842C77.5603 35.2847 77.5096 34.7021 77.4843 34.1448C77.4336 33.0555 77.4336 31.9409 77.6617 30.8516C78.1178 28.5464 79.6637 27.1278 81.9951 26.8998C82.4766 26.8492 82.9327 26.8238 83.4142 26.8238C84.8333 26.8238 88.001 26.8238 88.2291 26.8238C88.2291 27.8371 88.2291 28.825 88.2291 29.8383C88.001 29.8383 85.3402 29.8637 84.1998 29.889C83.7437 29.889 83.3129 29.9143 82.8567 29.965C82.0458 30.041 81.4629 30.4716 81.2348 31.2823C80.9814 32.1689 80.9307 33.1062 80.9814 34.0181C81.0068 34.3981 81.0574 34.7781 81.1335 35.158C81.3109 36.0447 81.7924 36.4753 82.6793 36.602C83.1101 36.6526 83.5663 36.7033 83.9971 36.7033C85.9737 36.6526 90.2311 36.6526 90.4845 36.6526Z" fill="white"/>
<path d="M100.444 26.7732C100.444 27.2038 100.444 29.3064 100.444 29.813C100.266 29.813 100.114 29.813 99.9116 29.813C99.0246 29.813 98.163 29.813 97.3014 29.813C97.124 29.813 96.9466 29.813 96.6932 29.813C96.6932 33.0808 96.6932 36.374 96.6932 39.6165C95.5275 39.6165 94.3871 39.6165 93.2214 39.6165C93.2214 36.374 93.2214 33.0808 93.2214 29.813C91.929 29.813 90.6872 29.813 89.4455 29.813C89.4455 29.3824 89.4455 27.4318 89.4455 26.7732C93.12 26.7732 96.7946 26.7732 100.444 26.7732Z" fill="white"/>
<path d="M24.0389 15.0191C25.306 17.071 26.9785 18.6416 28.8791 20.0602C26.8518 21.3268 25.2806 22.9987 23.8615 24.9239C22.5944 22.8721 20.9472 21.3015 19.0212 19.8829C21.0486 18.6416 22.6197 16.9697 24.0389 15.0191Z" fill="white"/>
<path d="M37.5966 8.15418C36.8364 8.73681 36.1015 9.29411 35.3412 9.82608C34.9611 10.1047 34.5049 10.3074 34.0235 10.3581C33.694 10.3834 33.3392 10.3834 33.0351 10.2821C32.503 10.1047 32.3256 9.57276 32.5536 9.09146C32.6043 8.99013 32.655 8.8888 32.731 8.8128C33.5673 7.82485 34.581 7.21689 35.8987 7.26756C36.583 7.26756 37.1405 7.54621 37.5966 8.15418Z" fill="white"/>
<path d="M10.3037 31.7889C11.0893 31.2063 11.8495 30.6236 12.6351 30.0663C13.1927 29.6863 13.8262 29.4837 14.5358 29.585C14.7385 29.6103 14.9666 29.7117 15.144 29.8383C15.4481 30.0663 15.5241 30.421 15.372 30.7756C15.3467 30.8263 15.3213 30.9023 15.296 30.9529C14.6625 32.1182 12.8632 32.9288 11.5708 32.6248C11.064 32.5235 10.6332 32.2702 10.3037 31.7889Z" fill="white"/>
<path d="M35.7467 33.6128C35.6453 33.5115 35.5693 33.4355 35.4932 33.3341C35.0878 32.8022 34.657 32.2449 34.2515 31.6876C33.8967 31.2062 33.618 30.6489 33.5419 30.041C33.5166 29.737 33.5419 29.4077 33.618 29.1037C33.77 28.597 34.3022 28.4197 34.7837 28.673C35.2905 28.9517 35.6453 29.357 35.9494 29.8383C36.4309 30.6236 36.7096 31.4849 36.4816 32.4222C36.4055 32.9035 36.1775 33.3088 35.7467 33.6128Z" fill="white"/>
<path d="M12.1536 6.35556C12.2043 6.43156 12.2804 6.48222 12.331 6.55821C12.7618 7.14085 13.218 7.72348 13.6488 8.30612C14.0289 8.81276 14.2823 9.37007 14.333 10.0034C14.3584 10.2314 14.333 10.4593 14.2823 10.662C14.1556 11.27 13.5728 11.5233 13.0406 11.2193C12.4831 10.9153 12.103 10.434 11.7989 9.87671C11.3681 9.11675 11.1653 8.28079 11.3934 7.39417C11.5201 6.96353 11.7482 6.63421 12.1536 6.35556Z" fill="white"/>
</g>
<defs>
<filter id="filter0_d" x="0" y="0" width="142" height="48" filterUnits="userSpaceOnUse" color-interpolation-filters="sRGB">
<feFlood flood-opacity="0" result="BackgroundImageFix"/>
<feColorMatrix in="SourceAlpha" type="matrix" values="0 0 0 0 0 0 0 0 0 0 0 0 0 0 0 0 0 0 127 0"/>
<feOffset dy="4"/>
<feGaussianBlur stdDeviation="2"/>
<feColorMatrix type="matrix" values="0 0 0 0 0 0 0 0 0 0 0 0 0 0 0 0 0 0 0.25 0"/>
<feBlend mode="normal" in2="BackgroundImageFix" result="effect1_dropShadow"/>
<feBlend mode="normal" in="SourceGraphic" in2="effect1_dropShadow" result="shape"/>
</filter>
</defs>
</svg>
